<svg xmlns="http://www.w3.org/2000/svg" width="100%" height="100%" viewBox="0 0 80 80" fill="none" id="Logo"><g id="logomark"><path d="M40.0004 47.248C47.5114 47.248 53.6004 44.0028 53.6004 40C53.6004 35.9969 47.5114 32.752 40.0004 32.752C32.4894 32.752 26.4004 35.9969 26.4004 40C26.4004 44.0028 32.4894 47.248 40.0004 47.248Z" stroke="white" stroke-width="0.8" stroke-miterlimit="10"></path><path d="M40.0009 47.9682C48.7668 47.9682 55.8729 44.4009 55.8729 40.0002C55.8729 35.5996 48.7668 32.0322 40.0009 32.0322C31.2351 32.0322 24.1289 35.5996 24.1289 40.0002C24.1289 44.4009 31.2351 47.9682 40.0009 47.9682Z" stroke="white" stroke-width="0.8" stroke-miterlimit="10"></path><path d="M39.9995 48.7044C50.0201 48.7044 58.1435 44.8074 58.1435 40.0004C58.1435 35.1932 50.0201 31.2964 39.9995 31.2964C29.9788 31.2964 21.8555 35.1932 21.8555 40.0004C21.8555 44.8074 29.9788 48.7044 39.9995 48.7044Z" stroke="white" stroke-width="0.8" stroke-miterlimit="10"></path><path d="M40 49.4242C51.2753 49.4242 60.416 45.205 60.416 40.0002C60.416 34.7954 51.2753 30.5762 40 30.5762C28.7245 30.5762 19.584 34.7954 19.584 40.0002C19.584 45.205 28.7245 49.4242 40 49.4242Z" stroke="white" stroke-width="0.8" stroke-miterlimit="10"></path><path d="M40.0001 50.1598C52.5216 50.1598 62.6721 45.611 62.6721 39.9998C62.6721 34.3886 52.5216 29.8398 40.0001 29.8398C27.4787 29.8398 17.3281 34.3886 17.3281 39.9998C17.3281 45.611 27.4787 50.1598 40.0001 50.1598Z" stroke="white" stroke-width="0.8" stroke-miterlimit="10"></path><path d="M40.0007 50.88C53.7768 50.88 64.9447 46.0089 64.9447 40.0001C64.9447 33.9912 53.7768 29.1201 40.0007 29.1201C26.2245 29.1201 15.0566 33.9912 15.0566 40.0001C15.0566 46.0089 26.2245 50.88 40.0007 50.88Z" stroke="white" stroke-width="0.8" stroke-miterlimit="10"></path><path d="M39.9992 51.6158C55.0303 51.6158 67.2152 46.4151 67.2152 39.9998C67.2152 33.5844 55.0303 28.3838 39.9992 28.3838C24.9682 28.3838 12.7832 33.5844 12.7832 39.9998C12.7832 46.4151 24.9682 51.6158 39.9992 51.6158Z" stroke="white" stroke-width="0.8" stroke-miterlimit="10"></path><path d="M39.9997 52.3361C56.2855 52.3361 69.4877 46.8132 69.4877 40.0001C69.4877 33.1871 56.2855 27.6641 39.9997 27.6641C23.7139 27.6641 10.5117 33.1871 10.5117 40.0001C10.5117 46.8132 23.7139 52.3361 39.9997 52.3361Z" stroke="white" stroke-width="0.8" stroke-miterlimit="10"></path><path d="M40.0002 53.0563C57.5408 53.0563 71.7602 47.2109 71.7602 40.0003C71.7602 32.7896 57.5408 26.9443 40.0002 26.9443C22.4597 26.9443 8.24023 32.7896 8.24023 40.0003C8.24023 47.2109 22.4597 53.0563 40.0002 53.0563Z" stroke="white" stroke-width="0.8" stroke-miterlimit="10"></path><path d="M40.0008 53.792C58.7961 53.792 74.0328 47.6171 74.0328 40C74.0328 32.3829 58.7961 26.208 40.0008 26.208C21.2054 26.208 5.96875 32.3829 5.96875 40C5.96875 47.6171 21.2054 53.792 40.0008 53.792Z" stroke="white" stroke-width="0.8" stroke-miterlimit="10"></path><path d="M39.9993 54.5118C60.0494 54.5118 76.3033 48.0147 76.3033 39.9998C76.3033 31.9851 60.0494 25.4878 39.9993 25.4878C19.9492 25.4878 3.69531 31.9851 3.69531 39.9998C3.69531 48.0147 19.9492 54.5118 39.9993 54.5118Z" stroke="white" stroke-width="0.8" stroke-miterlimit="10"></path><path d="M39.9994 55.2479C61.2956 55.2479 78.5594 48.4211 78.5594 40C78.5594 31.5787 61.2956 24.752 39.9994 24.752C18.7034 24.752 1.43945 31.5787 1.43945 40C1.43945 48.4211 18.7034 55.2479 39.9994 55.2479Z" stroke="white" stroke-width="0.8" stroke-miterlimit="10"></path></g></svg>